<?xml version="1.0" standalone="no"?>
<!DOCTYPE svg PUBLIC "-//W3C//DTD SVG 20010904//EN"
 "http://www.w3.org/TR/2001/REC-SVG-20010904/DTD/svg10.dtd">
<svg version="1.0" xmlns="http://www.w3.org/2000/svg"
 width="700.000000pt" height="584.000000pt" viewBox="0 0 700.000000 584.000000"
 preserveAspectRatio="xMidYMid meet">

<g transform="translate(0.000000,584.000000) scale(0.100000,-0.100000)"
fill="#000000" stroke="none">
<path d="M985 5800 c-24 -47 -18 -89 26 -170 81 -148 171 -327 209 -415 21
-49 48 -108 59 -130 12 -21 21 -46 21 -55 0 -9 7 -25 15 -38 9 -12 24 -45 35
-74 10 -29 33 -91 50 -138 17 -47 39 -112 49 -145 10 -33 25 -77 34 -99 10
-21 17 -46 17 -55 0 -9 11 -52 24 -96 32 -103 73 -285 81 -355 3 -30 14 -91
23 -135 24 -116 24 -615 0 -765 -10 -58 -22 -149 -28 -203 -7 -55 -17 -115
-24 -135 -7 -21 -16 -59 -20 -87 -17 -122 -141 -495 -215 -644 -113 -230 -227
-410 -335 -529 -60 -66 -66 -76 -66 -117 0 -63 19 -78 89 -73 52 5 126 39 291
138 35 21 249 120 259 120 7 0 31 10 54 22 23 11 56 24 72 29 17 4 53 16 80
27 102 42 432 132 482 132 12 0 59 9 105 20 75 18 118 20 455 20 328 0 384 -2
475 -20 57 -10 128 -22 158 -25 104 -11 456 -95 565 -135 28 -10 97 -33 155
-51 58 -18 123 -42 144 -53 55 -28 138 -33 172 -11 27 17 27 18 21 116 -5 100
-39 269 -82 409 -13 41 -26 89 -30 105 -3 17 -14 53 -25 80 -10 28 -30 84 -45
125 -51 141 -87 235 -105 275 -116 259 -302 618 -356 692 -13 17 -24 35 -24
38 0 4 -13 25 -29 48 -15 23 -52 80 -81 127 -122 195 -334 473 -525 690 -302
342 -677 680 -1051 946 -61 43 -132 95 -159 114 -48 35 -117 79 -211 134 -27
16 -66 39 -86 52 -21 13 -55 35 -75 47 -90 57 -312 171 -484 251 -35 16 -74
26 -102 26 -41 0 -48 -3 -62 -30z m406 -321 c372 -209 619 -376 969 -654 427
-339 922 -885 1215 -1340 32 -49 76 -117 97 -149 21 -33 38 -65 38 -73 0 -7 4
-13 9 -13 5 0 44 -66 87 -146 44 -80 92 -169 107 -197 16 -29 35 -70 44 -92 9
-22 22 -47 28 -55 7 -8 17 -28 23 -45 6 -16 27 -68 47 -115 70 -161 143 -357
154 -412 5 -20 17 -63 28 -95 35 -97 75 -258 72 -278 -6 -28 -46 -30 -115 -5
-56 21 -100 34 -254 74 -36 10 -96 26 -135 37 -38 10 -108 25 -155 33 -47 8
-119 21 -160 30 -211 41 -338 51 -670 50 -304 0 -335 -2 -485 -27 -188 -31
-267 -49 -465 -107 -141 -40 -223 -71 -354 -129 -76 -35 -104 -38 -113 -15 -6
16 0 30 47 109 16 28 32 57 35 65 3 8 17 38 30 65 13 28 27 61 31 75 4 14 15
41 25 60 11 19 19 41 19 49 0 7 10 39 23 70 30 71 73 205 82 251 4 19 17 76
30 125 94 355 127 883 81 1294 -20 185 -82 471 -137 631 -10 30 -23 73 -28 95
-5 22 -26 83 -46 135 -20 52 -44 118 -52 145 -9 28 -22 59 -28 70 -7 11 -16
31 -20 45 -10 36 -99 238 -156 353 -43 88 -52 127 -29 127 4 0 41 -19 81 -41z"/>
<path d="M2870 5113 c-46 -18 -54 -95 -15 -141 13 -16 59 -53 102 -82 126 -86
358 -284 498 -424 177 -177 367 -408 451 -548 6 -10 18 -26 27 -36 10 -10 17
-23 17 -28 0 -5 14 -27 30 -48 17 -22 30 -45 30 -52 0 -6 7 -17 15 -24 12 -10
48 -68 95 -155 9 -16 29 -52 45 -80 44 -78 79 -143 119 -225 20 -41 41 -82 47
-90 8 -14 26 -50 50 -105 5 -11 13 -27 18 -35 13 -20 62 -128 100 -220 17 -41
40 -92 51 -112 11 -20 20 -43 20 -50 0 -8 9 -32 21 -53 11 -22 27 -58 34 -80
8 -22 26 -71 40 -110 54 -140 87 -231 105 -290 10 -33 27 -87 38 -120 28 -84
70 -225 77 -257 3 -17 17 -34 36 -43 27 -14 47 -15 162 -5 194 16 320 6 437
-38 52 -19 123 -45 156 -57 34 -12 72 -30 85 -39 82 -57 165 39 126 147 -8 23
-29 78 -45 122 -16 44 -35 96 -42 115 -14 37 -42 101 -84 191 -14 31 -26 61
-26 66 0 6 -13 35 -28 65 -16 29 -31 62 -35 73 -3 11 -11 27 -17 35 -5 8 -19
35 -30 60 -11 25 -24 52 -29 60 -5 8 -27 53 -50 100 -23 47 -55 110 -73 140
-17 30 -36 69 -42 85 -7 17 -25 52 -42 78 -16 26 -70 114 -120 195 -241 393
-453 653 -858 1057 -244 243 -637 578 -782 668 -16 9 -72 44 -124 77 -52 33
-129 76 -170 96 -41 20 -84 41 -95 47 -11 6 -62 25 -114 44 -90 31 -171 41
-211 26z m1023 -765 c340 -311 737 -726 890 -929 99 -131 297 -423 297 -437 0
-4 12 -24 26 -43 44 -59 294 -530 294 -554 0 -7 7 -18 14 -25 8 -6 20 -28 27
-48 6 -20 20 -49 30 -64 11 -14 19 -32 19 -40 0 -11 41 -108 130 -305 20 -43
18 -73 -4 -73 -6 0 -57 14 -111 32 -96 30 -107 31 -276 32 -193 1 -203 4 -212
59 -6 38 -40 141 -69 212 -11 28 -22 61 -25 75 -3 14 -15 52 -28 85 -31 79
-103 270 -121 320 -8 22 -23 56 -34 76 -11 20 -20 42 -20 48 0 7 -14 42 -31
79 -17 37 -42 92 -56 122 -131 290 -358 720 -467 886 -11 16 -30 45 -43 65
-12 19 -23 39 -23 44 0 5 -10 19 -21 31 -12 13 -27 32 -33 42 -37 64 -186 264
-276 371 -11 13 -20 28 -20 33 0 25 43 -3 143 -94z"/>
<path d="M6435 1434 c-22 -2 -112 -11 -200 -19 -88 -8 -299 -22 -469 -30 -170
-9 -339 -20 -375 -25 -36 -5 -169 -14 -296 -20 -126 -6 -284 -15 -350 -20
-183 -15 -389 -28 -616 -40 -114 -6 -276 -17 -360 -25 -85 -8 -257 -19 -384
-25 -126 -6 -275 -15 -330 -20 -55 -5 -226 -17 -380 -25 -154 -8 -356 -22
-450 -30 -93 -8 -273 -19 -400 -25 -126 -6 -300 -17 -385 -25 -85 -8 -256 -19
-380 -25 -399 -19 -525 -34 -560 -65 -39 -36 -34 -56 60 -238 49 -96 90 -186
90 -199 0 -32 -1 -33 -209 -173 -201 -136 -285 -182 -355 -196 -56 -10 -73
-26 -82 -77 -8 -40 16 -79 61 -101 24 -12 37 -11 104 9 42 12 93 33 113 46 21
13 40 24 43 24 4 0 26 14 50 30 24 17 46 30 50 30 3 0 64 42 135 93 180 128
303 198 362 205 58 6 74 -3 273 -158 155 -120 253 -190 268 -190 5 0 22 -10
39 -21 16 -12 73 -34 125 -50 235 -71 424 -15 704 207 35 28 104 75 153 105
l89 54 91 0 c115 0 139 -12 318 -153 264 -208 319 -234 509 -239 126 -4 127
-4 215 31 86 35 96 42 377 258 33 25 89 60 124 77 55 27 73 31 146 31 76 0 91
-3 154 -35 38 -19 130 -83 204 -143 74 -59 157 -122 184 -139 195 -123 460
-120 652 9 26 18 107 78 178 134 72 56 163 118 202 138 66 33 80 36 157 36 77
0 93 -3 156 -34 44 -22 116 -74 197 -143 166 -141 185 -154 268 -193 63 -30
79 -33 163 -34 l94 -1 20 35 c42 71 10 105 -140 150 -89 26 -150 64 -262 164
-77 69 -118 100 -231 173 -62 41 -234 79 -304 68 -78 -13 -184 -44 -227 -67
-61 -33 -169 -110 -263 -189 -44 -36 -100 -77 -124 -90 -24 -13 -55 -30 -69
-38 -17 -9 -63 -14 -136 -15 -148 -1 -180 6 -200 47 -15 30 -15 33 5 50 12 9
31 17 44 17 12 0 33 8 46 18 13 10 42 27 64 38 86 43 321 168 345 184 14 10
45 27 70 40 88 43 464 291 626 412 61 46 142 106 180 133 86 63 194 170 194
194 0 10 -15 34 -32 54 -35 39 -61 47 -133 41z m-280 -224 c0 -37 -372 -297
-630 -441 -16 -9 -100 -55 -185 -103 -85 -48 -195 -107 -245 -132 -49 -24 -97
-49 -105 -54 -28 -17 -128 -58 -157 -64 -23 -5 -38 0 -74 27 -82 63 -179 116
-242 133 -99 26 -159 35 -202 28 -79 -12 -201 -47 -227 -65 -14 -11 -31 -19
-36 -19 -6 0 -59 -39 -119 -87 -158 -127 -249 -192 -288 -209 -48 -20 -250
-19 -285 1 -14 8 -39 21 -57 30 -18 8 -88 59 -156 114 -183 146 -236 179 -329
208 -102 31 -177 33 -280 5 -94 -25 -189 -77 -283 -152 -97 -79 -196 -145
-276 -186 -65 -32 -73 -34 -177 -34 -106 0 -110 1 -192 41 -94 45 -132 71
-308 211 -191 153 -299 204 -402 193 l-55 -6 -38 57 c-20 31 -37 62 -37 68 0
6 -9 22 -20 36 -24 31 -25 56 -2 65 9 3 104 11 211 16 106 5 232 13 280 19 47
5 221 17 386 25 165 8 342 20 393 25 50 6 230 17 400 25 169 9 368 22 442 30
74 7 225 17 335 20 110 4 290 15 400 26 110 10 314 24 454 29 140 6 288 15
330 21 42 5 213 16 381 24 168 8 343 19 390 25 47 5 177 14 290 20 325 16 542
31 585 40 63 13 130 8 130 -10z"/>
</g>
</svg>
